<svg width="34" height="32" viewBox="0 0 34 32" fill="none" xmlns="http://www.w3.org/2000/svg">
<path d="M33.5195 22.7427C33.3363 22.3584 33.1532 21.9419 32.97 21.5896C32.677 21.013 32.3839 20.4685 32.1275 19.956L32.0909 19.9239C29.5634 15.1191 26.8528 10.2502 23.9957 5.44545L23.8858 5.25325C23.5927 4.77277 23.2997 4.26026 23.0067 3.74775C22.6404 3.17117 22.2741 2.56256 21.688 1.98599C20.5158 0.704705 18.8308 0 17.036 0C15.2045 0 13.5561 0.704705 12.3473 1.92192C11.7979 2.4985 11.395 3.10711 11.0287 3.68368C10.7356 4.1962 10.4426 4.70871 10.1496 5.18919L10.0397 5.38138C7.21915 10.1862 4.47191 15.0551 1.94444 19.8599L1.90781 19.9239C1.6514 20.4364 1.35836 20.981 1.06532 21.5576C0.882171 21.9099 0.699022 22.2943 0.515872 22.7107C0.0396825 23.8959 -0.106837 25.017 0.0763124 26.1702C0.479242 28.5726 2.31074 30.5906 4.83821 31.4875C5.79059 31.8398 6.77959 32 7.80523 32C8.09827 32 8.46457 31.968 8.75761 31.9359C9.9664 31.8078 11.2118 31.4555 12.4206 30.8468C13.9224 30.1101 15.351 29.0531 16.9627 27.5155C18.5744 29.0531 20.0396 30.1101 21.5048 30.8468C22.7136 31.4555 23.959 31.8078 25.1678 31.9359C25.4609 31.968 25.8272 32 26.1202 32C27.1458 32 28.1715 31.8398 29.0872 31.4875C31.6513 30.5906 33.4462 28.5405 33.8491 26.1702C34.1422 25.049 33.9956 23.9279 33.5195 22.7427ZM16.9994 24.4084C15.0213 22.2302 13.7393 20.1802 13.2997 18.4504C13.1166 17.7137 13.0799 17.0731 13.1898 16.4965C13.2631 15.984 13.4829 15.5355 13.7759 15.1512C14.4719 14.2863 15.644 13.7417 16.9994 13.7417C18.3547 13.7417 19.5634 14.2543 20.2228 15.1512C20.5158 15.5355 20.7356 15.984 20.8089 16.4965C20.9188 17.0731 20.8821 17.7457 20.699 18.4504C20.2594 20.1481 18.9774 22.1982 16.9994 24.4084ZM31.6147 25.9139C31.3583 27.5796 30.0762 29.021 28.2814 29.6617C27.4023 29.982 26.4499 30.0781 25.4975 29.982C24.5818 29.8859 23.666 29.6296 22.7136 29.1491C21.3949 28.5085 20.0763 27.5155 18.5378 26.042C20.9554 23.4474 22.4206 21.0771 22.97 18.963C23.2264 17.97 23.2631 17.0731 23.1532 16.2402C23.0067 15.4394 22.677 14.7027 22.1642 14.0621C21.0286 12.6206 19.1239 11.7878 16.9994 11.7878C14.8748 11.7878 12.9701 12.6527 11.8345 14.0621C11.3217 14.7027 10.992 15.4394 10.8455 16.2402C10.699 17.0731 10.7356 18.002 11.0287 18.963C11.5781 21.0771 13.0799 23.4795 15.4609 26.0741C13.9591 27.5475 12.6038 28.5405 11.2851 29.1812C10.3327 29.6617 9.41695 29.9179 8.5012 30.014C7.51219 30.1101 6.55981 29.982 5.71733 29.6937C3.92246 29.0531 2.64041 27.6116 2.384 25.9459C2.27411 25.1451 2.34737 24.3443 2.71367 23.4474C2.82356 23.1271 3.00671 22.8068 3.18986 22.4224C3.44627 21.9099 3.73931 21.3654 4.03235 20.8208L4.06898 20.7568C6.59644 15.984 9.30706 11.1151 12.1276 6.37437L12.2375 6.18218C12.5305 5.7017 12.8235 5.18919 13.1166 4.70871C13.4096 4.1962 13.7393 3.71572 14.1422 3.2993C14.9114 2.53053 15.9371 2.11411 17.0726 2.11411C18.2081 2.11411 19.2338 2.53053 20.003 3.2993C20.4059 3.71572 20.7356 4.1962 21.0286 4.70871C21.3217 5.18919 21.6147 5.7017 21.9078 6.18218L22.0177 6.37437C24.8015 11.1471 27.5121 16.016 30.0396 20.7888V20.8208C30.3327 21.3333 30.5891 21.9099 30.8821 22.4224C31.0653 22.8068 31.2484 23.1271 31.3583 23.4474C31.6513 24.2803 31.7612 25.0811 31.6147 25.9139Z" fill="#FF5A5F"/>
</svg>
